<?xml version="1.0" standalone="yes"?>
<!DOCTYPE svg PUBLIC "-//W3C//DTD SVG 1.1//EN" "http://www.w3.org/Graphics/SVG/1.1/DTD/svg11.dtd">
<svg xmlns="http://www.w3.org/2000/svg" height="490.6179939824797" cursor="crosshair" width="490.6179939824797" version="1.1" viewBox="0 0 490.6179939824797 490.6179939824797" style="zoom: 1;"><!-- svg-source:excalidraw --><metadata></metadata><defs><style class="style-fonts"></style></defs><g stroke-linecap="round" transform="translate(10 10) rotate(0 235.30899699123984 235.30899699123984)"></g><g stroke-linecap="round" transform="translate(113.77722603843449 136.93528991044013) rotate(0 15.674092288049223 107.53574804412574)"><path d="M0 0 L31.35 0 L31.35 215.07 L0 215.07" stroke="none" stroke-width="0" fill="#ba3535"></path><path d="M0 0 C10.97 0, 21.93 0, 31.35 0 M0 0 C10.99 0, 21.97 0, 31.35 0 M31.35 0 C31.35 47.35, 31.35 94.7, 31.35 215.07 M31.35 0 C31.35 62.23, 31.35 124.45, 31.35 215.07 M31.35 215.07 C24.48 215.07, 17.6 215.07, 0 215.07 M31.35 215.07 C19.73 215.07, 8.11 215.07, 0 215.07 M0 215.07 C0 138.84, 0 62.6, 0 0 M0 215.07 C0 132.17, 0 49.27, 0 0" stroke="#ba3535" stroke-width="1" fill="none"></path></g><g stroke-linecap="round" transform="translate(113.77021802625131 323.5009268806334) rotate(0 66.64303303125553 14.25800203401775)"><path d="M0 0 L133.29 0 L133.29 28.52 L0 28.52" stroke="none" stroke-width="0" fill="#ba3535"></path><path d="M0 0 C33.96 0, 67.92 0, 133.29 0 M0 0 C47.75 0, 95.51 0, 133.29 0 M133.29 0 C133.29 5.98, 133.29 11.95, 133.29 28.52 M133.29 0 C133.29 10.89, 133.29 21.78, 133.29 28.52 M133.29 28.52 C94.13 28.52, 54.98 28.52, 0 28.52 M133.29 28.52 C80.09 28.52, 26.89 28.52, 0 28.52 M0 28.52 C0 17.97, 0 7.42, 0 0 M0 28.52 C0 20.21, 0 11.91, 0 0" stroke="#ba3535" stroke-width="1" fill="none"></path></g><g stroke-linecap="round" transform="translate(216.01133535507324 136.12472368574754) rotate(0 15.685347388198807 87.67023189499878)"><path d="M0 0 L31.37 0 L31.37 175.34 L0 175.34" stroke="none" stroke-width="0" fill="#ba3535"></path><path d="M0 0 C6.57 0, 13.13 0, 31.37 0 M0 0 C10.62 0, 21.24 0, 31.37 0 M31.37 0 C31.37 52.05, 31.37 104.1, 31.37 175.34 M31.37 0 C31.37 58.01, 31.37 116.02, 31.37 175.34 M31.37 175.34 C23.6 175.34, 15.82 175.34, 0 175.34 M31.37 175.34 C22.69 175.34, 14.02 175.34, 0 175.34 M0 175.34 C0 136.71, 0 98.08, 0 0 M0 175.34 C0 130.28, 0 85.21, 0 0" stroke="#ba3535" stroke-width="1" fill="none"></path></g><g stroke-linecap="round" transform="translate(279.7635557652543 103.23259056336838) rotate(39.31231295650112 16.982479429534806 100.94975014813474)"><path d="M-0.044843,28.060762 L33.959999,0 L33.959999,201.899994 L0,201.899994 " stroke-width="0" stroke="none" fill="#ba3535"></path></g><g stroke-linecap="round" transform="translate(324.5946293082611 111.59591985330007) rotate(0 27.559221660392268 11.927465612409605)"></g><g stroke-linecap="round" transform="translate(302.79233035369 235.198611680687) rotate(145.20093061053257 15.818785066167493 69.06757212320599)"><path d="M-0.142675,0.20529 L32.41394,22.166115 L31.497324,138.345291 L0.322038,141.278732 " stroke-width="0" stroke="none" fill="#ba3535"></path></g><g stroke-linecap="round" transform="translate(315.4722377427838 352.742081047973) rotate(0 31.623168758986594 13.79671725554067)"></g></svg>