<?xml version="1.0" standalone="no"?>
<!DOCTYPE svg PUBLIC "-//W3C//DTD SVG 1.1//EN" "http://www.w3.org/Graphics/SVG/1.1/DTD/svg11.dtd">
<svg version="1.1" xmlns="http://www.w3.org/2000/svg" viewBox="0 0 490.6179939824797 490.6179939824797" width="490.6179939824797" height="490.6179939824797" filter="invert(93%) hue-rotate(180deg)"><!-- svg-source:excalidraw --><metadata></metadata><defs><style class="style-fonts">
      </style></defs><g stroke-linecap="round" transform="translate(10 10) rotate(0 235.30899699123984 235.30899699123984)"><path d="M0 0 L470.62 0 L470.62 470.62 L0 470.62" stroke="none" stroke-width="0" fill="#000000"></path><path d="M0 0 C109.05 0, 218.1 0, 470.62 0 M0 0 C131.38 0, 262.75 0, 470.62 0 M470.62 0 C470.62 141.47, 470.62 282.95, 470.62 470.62 M470.62 0 C470.62 120.75, 470.62 241.51, 470.62 470.62 M470.62 470.62 C307.64 470.62, 144.67 470.62, 0 470.62 M470.62 470.62 C370.85 470.62, 271.07 470.62, 0 470.62 M0 470.62 C0 330.15, 0 189.68, 0 0 M0 470.62 C0 348.71, 0 226.79, 0 0" stroke="#000000" stroke-width="1" fill="none"></path></g><g stroke-linecap="round" transform="translate(112.34457770202596 136.27856919550277) rotate(0 15.67409228804928 107.53574804412574)"><path d="M0 0 L31.35 0 L31.35 215.07 L0 215.07" stroke="none" stroke-width="0" fill="#fcfcfc"></path><path d="M0 0 C8.33 0, 16.65 0, 31.35 0 M0 0 C11.19 0, 22.37 0, 31.35 0 M31.35 0 C31.35 43.02, 31.35 86.05, 31.35 215.07 M31.35 0 C31.35 45.46, 31.35 90.93, 31.35 215.07 M31.35 215.07 C23.81 215.07, 16.26 215.07, 0 215.07 M31.35 215.07 C21.92 215.07, 12.48 215.07, 0 215.07 M0 215.07 C0 158.48, 0 101.89, 0 0 M0 215.07 C0 160.15, 0 105.22, 0 0" stroke="#fcfcfc" stroke-width="1" fill="none"></path></g><g stroke-linecap="round" transform="translate(112.33756968984278 322.8442061656963) rotate(0 66.64303303125556 14.25800203401775)"><path d="M0 0 L133.29 0 L133.29 28.52 L0 28.52" stroke="none" stroke-width="0" fill="#fcfcfc"></path><path d="M0 0 C50.46 0, 100.92 0, 133.29 0 M0 0 C39.15 0, 78.29 0, 133.29 0 M133.29 0 C133.29 10.12, 133.29 20.24, 133.29 28.52 M133.29 0 C133.29 10.6, 133.29 21.2, 133.29 28.52 M133.29 28.52 C81.64 28.52, 29.99 28.52, 0 28.52 M133.29 28.52 C94.2 28.52, 55.12 28.52, 0 28.52 M0 28.52 C0 22.36, 0 16.2, 0 0 M0 28.52 C0 20.84, 0 13.17, 0 0" stroke="#fcfcfc" stroke-width="1" fill="none"></path></g><g stroke-linecap="round" transform="translate(214.5786870186647 135.46800297081018) rotate(0 15.685347388198721 87.67023189499889)"><path d="M0 0 L31.37 0 L31.37 175.34 L0 175.34" stroke="none" stroke-width="0" fill="#fcfcfc"></path><path d="M0 0 C10.7 0, 21.4 0, 31.37 0 M0 0 C12.18 0, 24.36 0, 31.37 0 M31.37 0 C31.37 54.77, 31.37 109.53, 31.37 175.34 M31.37 0 C31.37 51.2, 31.37 102.4, 31.37 175.34 M31.37 175.34 C23.75 175.34, 16.13 175.34, 0 175.34 M31.37 175.34 C21.1 175.34, 10.82 175.34, 0 175.34 M0 175.34 C0 121.26, 0 67.17, 0 0 M0 175.34 C0 135.91, 0 96.49, 0 0" stroke="#fcfcfc" stroke-width="1" fill="none"></path></g><g stroke-linecap="round" transform="translate(278.33090742884553 102.57586984843124) rotate(39.31231295650112 16.982479429534806 100.94975014813474)"><path d="M0 0 L33.96 0 L33.96 201.9 L0 201.9" stroke="none" stroke-width="0" fill="#fcfcfc"></path><path d="M0 0 C7.74 0, 15.49 0, 33.96 0 M0 0 C10.29 0, 20.59 0, 33.96 0 M33.96 0 C33.96 67.31, 33.96 134.61, 33.96 201.9 M33.96 0 C33.96 63.23, 33.96 126.47, 33.96 201.9 M33.96 201.9 C26.42 201.9, 18.88 201.9, 0 201.9 M33.96 201.9 C23.77 201.9, 13.57 201.9, 0 201.9 M0 201.9 C0 152.66, 0 103.41, 0 0 M0 201.9 C0 140.85, 0 79.8, 0 0" stroke="#fcfcfc" stroke-width="1" fill="none"></path></g><g stroke-linecap="round" transform="translate(323.16198097185236 110.93919913836294) rotate(0 27.559221660392268 11.927465612409605)"><path d="M0 0 L55.12 0 L55.12 23.85 L0 23.85" stroke="none" stroke-width="0" fill="#000000"></path><path d="M0 0 C12.27 0, 24.54 0, 55.12 0 M0 0 C19.06 0, 38.12 0, 55.12 0 M55.12 0 C55.12 8.7, 55.12 17.4, 55.12 23.85 M55.12 0 C55.12 7.1, 55.12 14.2, 55.12 23.85 M55.12 23.85 C35.7 23.85, 16.27 23.85, 0 23.85 M55.12 23.85 C43.79 23.85, 32.46 23.85, 0 23.85 M0 23.85 C0 17.37, 0 10.89, 0 0 M0 23.85 C0 16.06, 0 8.27, 0 0" stroke="#000000" stroke-width="1" fill="none"></path></g><g stroke-linecap="round" transform="translate(301.35968201728144 234.5418909657501) rotate(145.20093061053257 15.818785066167436 69.0675721232061)"><path d="M0 0 L31.64 0 L31.64 138.14 L0 138.14" stroke="none" stroke-width="0" fill="#fcfcfc"></path><path d="M0 0 C7.24 0, 14.47 0, 31.64 0 M0 0 C10.07 0, 20.14 0, 31.64 0 M31.64 0 C31.64 39.71, 31.64 79.43, 31.64 138.14 M31.64 0 C31.64 47.18, 31.64 94.36, 31.64 138.14 M31.64 138.14 C23.78 138.14, 15.92 138.14, 0 138.14 M31.64 138.14 C24 138.14, 16.37 138.14, 0 138.14 M0 138.14 C0 106.27, 0 74.4, 0 0 M0 138.14 C0 86.52, 0 34.9, 0 0" stroke="#fcfcfc" stroke-width="1" fill="none"></path></g><g stroke-linecap="round" transform="translate(314.03958940637506 352.08536033303585) rotate(0 31.62316875898665 13.79671725554067)"><path d="M0 0 L63.25 0 L63.25 27.59 L0 27.59" stroke="none" stroke-width="0" fill="#000000"></path><path d="M0 0 C17.03 0, 34.05 0, 63.25 0 M0 0 C12.69 0, 25.39 0, 63.25 0 M63.25 0 C63.25 7.2, 63.25 14.39, 63.25 27.59 M63.25 0 C63.25 6.04, 63.25 12.07, 63.25 27.59 M63.25 27.59 C42.56 27.59, 21.87 27.59, 0 27.59 M63.25 27.59 C41.65 27.59, 20.06 27.59, 0 27.59 M0 27.59 C0 17.29, 0 6.99, 0 0 M0 27.59 C0 17.55, 0 7.51, 0 0" stroke="#000000" stroke-width="1" fill="none"></path></g></svg>